<svg width="110" height="205" viewBox="0 0 110 205" fill="none" xmlns="http://www.w3.org/2000/svg">
<path d="M90.256 74.952C89.4027 74.8667 88.8907 71.752 88.72 65.608C89.0613 63.9013 89.744 61.6827 90.768 58.952C91.792 56.136 93.2427 52.8507 95.12 49.096C95.632 48.9253 96.016 48.84 96.272 48.84C97.808 48.84 98.576 50.4187 98.576 53.576C97.7227 54.9413 96.8693 56.3493 96.016 57.8C95.1627 59.1653 94.352 60.5307 93.584 61.896C91.28 66.3333 90.1707 70.6853 90.256 74.952ZM54.288 158.92C41.232 158.92 31.12 155.805 23.952 149.576C18.064 144.285 15.12 137.544 15.12 129.352C15.12 120.136 18.9173 112.627 26.512 106.824C33.3387 101.533 41.1467 98.8453 49.936 98.76C57.2747 98.76 63.0347 100.637 67.216 104.392C70.8853 107.805 72.72 111.987 72.72 116.936C72.72 121.971 70.928 126.28 67.344 129.864C63.248 133.789 58.0427 135.752 51.728 135.752C50.96 135.752 50.576 135.624 50.576 135.368C50.576 134.856 50.96 134.557 51.728 134.472C54.4587 133.875 56.8907 133.021 59.024 131.912C61.2427 130.803 63.12 129.352 64.656 127.56C67.5573 124.403 69.008 120.733 69.008 116.552C69.008 111.944 67.344 108.189 64.016 105.288C60.6027 102.131 56.08 100.552 50.448 100.552C42.768 100.552 36.0267 103.069 30.224 108.104C23.9093 113.395 20.752 120.136 20.752 128.328C20.752 136.349 23.184 142.792 28.048 147.656C33.68 153.629 42.128 156.616 53.392 156.616C64.4 156.616 73.616 153.331 81.04 146.76C89.1467 139.763 93.2 130.931 93.2 120.264C93.2 112.499 90.2133 105.117 84.24 98.12L70.288 83.784C67.728 81.1387 65.8507 78.536 64.656 75.976C63.5467 73.3307 62.992 70.8133 62.992 68.424C62.992 63.1333 65.04 58.9093 69.136 55.752C73.0613 52.5947 77.6267 51.016 82.832 51.016C84.88 51.016 86.928 51.3147 88.976 51.912C91.024 52.5093 92.048 53.2347 92.048 54.088C92.048 54.5147 91.792 54.728 91.28 54.728C91.024 54.728 90 54.344 88.208 53.576C86.7573 52.9787 85.264 52.68 83.728 52.68C79.888 52.68 76.4747 54.088 73.488 56.904C70.5867 59.8053 69.136 63.1333 69.136 66.888C69.136 71.1547 71.1413 75.4213 75.152 79.688L88.208 91.848C92.3893 95.688 95.4613 99.8693 97.424 104.392C99.472 108.829 100.496 113.523 100.496 118.472C100.496 129.907 95.5893 139.635 85.776 147.656C76.56 155.165 66.064 158.92 54.288 158.92ZM85.136 116.936C84.7093 117.107 84.496 116.851 84.496 116.168C83.8987 111.987 82.192 107.72 79.376 103.368C79.2053 104.648 78.9493 106.099 78.608 107.72C76.9867 107.976 75.536 107.421 74.256 106.056C74.0853 105.8 73.872 105.416 73.616 104.904C73.4453 104.392 73.36 103.795 73.36 103.112V102.216C73.36 101.277 73.488 100.637 73.744 100.296C75.536 101.576 77.0293 102.088 78.224 101.832C76.2613 99.016 74 96.456 71.44 94.152C68.88 91.7627 66.1067 89.6293 63.12 87.752C56.8907 83.9973 51.3867 82.12 46.608 82.12C41.488 82.12 37.9467 84.2533 35.984 88.52C36.9227 87.8373 37.8613 87.496 38.8 87.496C39.824 87.496 40.8053 87.7947 41.744 88.392C43.4507 89.5867 44.2613 90.952 44.176 92.488C43.0667 91.976 41.872 91.72 40.592 91.72C38.2027 91.72 36.4533 92.744 35.344 94.792C34.4053 93.3413 33.936 92.104 33.936 91.08C33.936 89.8 34.5333 88.2213 35.728 86.344C38.2027 82.248 42.0427 80.2 47.248 80.2C55.0133 80.2 63.0347 84.04 71.312 91.72C75.5787 95.4747 79.0347 99.3573 81.68 103.368C84.3253 107.293 85.648 111.389 85.648 115.656V116.04C85.648 116.467 85.4773 116.765 85.136 116.936Z" fill="black"/>
<path d="M92.9053 92.7857C95.293 92.8746 97.499 93.2556 99.5234 93.9287C101.551 94.5166 102.541 95.4501 102.493 96.7292C102.461 97.5819 101.964 98.3319 101 98.9792C99.9517 99.6233 98.7389 100.09 97.3618 100.381C95.8962 100.753 94.6092 100.919 93.5006 100.877C89.8338 100.741 86.3156 100.055 82.9459 98.8192C79.573 97.6689 76.1165 96.4728 72.5762 95.2308C68.9476 94.071 65.044 93.4132 60.8656 93.2576C55.7491 93.0671 50.8061 93.9504 46.0367 95.9076C41.2672 97.8648 36.9808 100.609 33.1774 104.139C29.3741 107.669 26.3634 111.698 24.1453 116.227C21.8388 120.838 20.5919 125.659 20.4045 130.69C20.2045 136.062 20.9678 140.787 22.6946 144.865C24.3361 148.939 27.1195 152.16 31.0448 154.526C34.8849 156.89 39.96 158.189 46.2703 158.424C51.0457 158.601 55.7297 157.794 60.3222 156.001C64.9116 154.293 69.0542 151.971 72.7501 149.035C76.4427 146.183 79.4201 143.049 81.6822 139.632C83.9442 136.216 85.1324 132.972 85.2467 129.902C85.3071 128.282 84.7294 126.595 83.5138 124.842C82.2982 123.089 80.1129 122.154 76.9577 122.036C73.9731 121.925 70.7041 122.572 67.1507 123.977C63.5941 125.467 60.1891 127.475 56.9355 130.001C53.5934 132.609 50.7093 135.533 48.283 138.773C45.8536 142.098 44.3164 145.542 43.6713 149.104C43.4595 150.207 43.1846 150.709 42.8467 150.611C42.5088 150.513 42.3573 149.995 42.3922 149.057C42.5288 145.39 43.6018 141.801 45.6112 138.289C47.6174 134.863 50.2079 131.8 53.3825 129.1C56.5572 126.4 60.0523 124.268 63.8679 122.702C67.5982 121.133 71.3394 120.418 75.0914 120.558C78.4171 120.682 81.04 121.335 82.96 122.516C84.8801 123.698 86.2363 125.115 87.0287 126.767C87.8179 128.504 88.1823 130.182 88.122 131.803C88.0013 135.043 86.8968 138.332 84.8085 141.67C82.6317 145.09 79.6986 148.183 76.0091 150.949C72.2343 153.712 67.8833 155.898 62.956 157.508C57.9434 159.115 52.5804 159.811 46.867 159.599C41.58 159.402 37.0448 158.507 33.2615 156.914C29.475 155.407 26.3913 153.371 24.0104 150.806C21.6264 148.326 19.8978 145.444 18.8246 142.159C17.663 138.956 17.1489 135.564 17.2822 131.983C17.5045 126.013 18.8622 120.513 21.3551 115.483C23.7596 110.534 26.993 106.257 31.0554 102.651C35.1177 99.0448 39.7041 96.2696 44.8147 94.3251C49.9221 92.4658 55.2046 91.6379 60.6621 91.8411C64.67 91.9903 68.4046 92.5991 71.8659 93.6673C75.3272 94.7355 78.7049 95.7579 81.9988 96.7345C85.2043 97.7932 88.6404 98.3908 92.3072 98.5274C93.0747 98.556 94.1849 98.5546 95.6377 98.5233C97.0053 98.4889 98.2497 98.3217 99.3709 98.0219C100.489 97.8074 101.061 97.359 101.086 96.6768C101.108 96.0799 100.614 95.5918 99.6036 95.2126C98.5931 94.8334 97.4072 94.5758 96.0459 94.4397C94.6847 94.3036 93.5778 94.2197 92.725 94.1879C88.8024 94.0418 85.0233 94.6269 81.3878 95.9432C77.7492 97.3448 74.2177 99.3054 70.7936 101.825C67.3695 104.345 64.1032 107.212 60.9947 110.426C57.7978 113.723 54.7225 117.195 51.7687 120.842C48.0062 125.569 43.9974 130.031 39.7422 134.228C35.4871 138.424 31.1658 142.106 26.7782 145.273C22.3875 148.525 18.1106 151.013 13.9476 152.737C9.78137 154.546 5.90751 155.383 2.326 155.25C1.21743 155.209 0.798997 154.98 1.07069 154.563C1.33922 154.231 1.81458 154.078 2.49678 154.104C5.3961 154.212 8.54513 153.347 11.9439 151.509C15.3426 149.672 18.852 147.155 22.4721 143.96C26.0069 140.761 29.4265 137.217 32.7309 133.326C36.0353 129.436 39.0429 125.492 41.7535 121.494C44.0124 118.162 46.7861 114.765 50.0746 111.301C53.3632 107.837 57.1538 104.647 61.4466 101.733C65.7361 98.9041 70.5167 96.6485 75.7883 94.9662C81.0599 93.2838 86.7656 92.557 92.9053 92.7857Z" fill="black"/>
</svg>
